<svg version="1.1" id="Layer_1" xmlns="http://www.w3.org/2000/svg" xmlns:xlink="http://www.w3.org/1999/xlink" viewBox="0 0 200 200" xml:space="preserve">
    <style type="text/css">
        .st0{fill:#F48024;}
        .st1{fill:#FFFFFF;}
        .st2{fill:#FF6D00;}
    </style>
    <circle class="st0" cx="100" cy="100" r="100"/>
    <path class="st1" d="M141.5,100c-1.7,0-3.3-1.4-3.3-3.2c0-5.7-4.5-10.2-10.2-10.2H101c-5.5,0-10.1-4.5-10.1-10.1V62.2c0-5.8-4.8-10.6-10.6-10.6H74.8c-5.8,0-10.6,4.8-10.6,10.6v11.1H54.1v-11c0-10.8,8.8-19.6,19.6-19.6h16.2c10.8,0,19.6,8.8,19.6,19.6v14.3c0,1.7,1.4,3.3,3.3,3.3h27.7c10.8,0,19.6,8.8,19.6,19.6v5.5c0,10.8-8.8,19.6-19.6,19.6h-27.7c-1.7,0-3.3,1.4-3.3,3.2v14.3c0,10.8-8.8,19.6-19.6,19.6H74.8c-10.8,0-19.6-8.8-19.6-19.6v-11.1h10.1v11.1c0,5.8,4.8,10.6,10.6,10.6h16.2c5.8,0,10.6-4.8,10.6-10.6V124c0-5.8,4.8-10.6,10.6-10.6h27.7c5.8,0,10.6-4.8,10.6-10.6v-5.5C145.1,101.4,143.3,100,141.5,100z"/>
    <circle class="st2" cx="100" cy="100" r="10"/>
</svg>
